<svg xmlns="http://www.w3.org/2000/svg" viewBox="0 0 64 64" shape-rendering="crispEdges"><title>Bone Golem</title><rect x="16" y="24" width="32" height="24" fill="#171321"/><rect x="20" y="28" width="24" height="20" fill="#ded8b0"/><rect x="24" y="12" width="16" height="16" fill="#171321"/><rect x="28" y="16" width="12" height="12" fill="#ded8b0"/><rect x="28" y="20" width="4" height="4" fill="#b9f2cf"/><rect x="36" y="20" width="4" height="4" fill="#b9f2cf"/><rect x="12" y="28" width="8" height="20" fill="#171321"/><rect x="44" y="28" width="8" height="20" fill="#171321"/><rect x="20" y="44" width="12" height="12" fill="#171321"/><rect x="36" y="44" width="12" height="12" fill="#171321"/><rect x="24" y="32" width="16" height="4" fill="#6f498f"/><rect x="24" y="48" width="8" height="8" fill="#ded8b0"/><rect x="36" y="48" width="8" height="8" fill="#ded8b0"/><rect x="8" y="20" width="16" height="32" fill="#ded8b0"/><rect x="40" y="20" width="16" height="32" fill="#ded8b0"/><rect x="24" y="4" width="16" height="12" fill="#ded8b0"/><rect x="12" y="56" width="40" height="4" fill="#171321"/><rect x="20" y="52" width="24" height="4" fill="#292238"/></svg>
