<svg xmlns="http://www.w3.org/2000/svg" viewBox="0 0 64 64" shape-rendering="crispEdges"><title>Pixie Swarm</title><rect x="12" y="12" width="40" height="40" fill="#d78ee8" opacity="0.12"/><rect x="8" y="24" width="48" height="20" fill="#d78ee8" opacity="0.1"/><rect x="8" y="12" width="8" height="8" fill="#eee7dc"/><rect x="4" y="16" width="4" height="8" fill="#d78ee8"/><rect x="16" y="16" width="4" height="8" fill="#d78ee8"/><rect x="12" y="20" width="4" height="8" fill="#d78ee8"/><rect x="28" y="28" width="8" height="8" fill="#eee7dc"/><rect x="24" y="32" width="4" height="8" fill="#d78ee8"/><rect x="36" y="32" width="4" height="8" fill="#d78ee8"/><rect x="32" y="36" width="4" height="8" fill="#d78ee8"/><rect x="44" y="8" width="8" height="8" fill="#eee7dc"/><rect x="40" y="12" width="4" height="8" fill="#d78ee8"/><rect x="52" y="12" width="4" height="8" fill="#d78ee8"/><rect x="48" y="16" width="4" height="8" fill="#d78ee8"/><rect x="12" y="56" width="40" height="4" fill="#171321"/><rect x="20" y="52" width="24" height="4" fill="#292238"/></svg>
