<svg xmlns="http://www.w3.org/2000/svg" viewBox="0 0 64 64" shape-rendering="crispEdges"><title>Cleric</title><rect x="20" y="24" width="24" height="24" fill="#171321"/><rect x="24" y="28" width="16" height="20" fill="#eee7dc"/><rect x="24" y="12" width="16" height="16" fill="#171321"/><rect x="28" y="16" width="12" height="12" fill="#ded8b0"/><rect x="28" y="20" width="4" height="4" fill="#b9f2cf"/><rect x="36" y="20" width="4" height="4" fill="#b9f2cf"/><rect x="16" y="28" width="8" height="20" fill="#171321"/><rect x="40" y="28" width="8" height="20" fill="#171321"/><rect x="20" y="44" width="12" height="12" fill="#171321"/><rect x="36" y="44" width="12" height="12" fill="#171321"/><rect x="24" y="32" width="16" height="4" fill="#f5d76e"/><rect x="24" y="48" width="8" height="8" fill="#eee7dc"/><rect x="36" y="48" width="8" height="8" fill="#eee7dc"/><rect x="28" y="0" width="8" height="12" fill="#f5d76e" opacity="0.75"/><rect x="28" y="48" width="8" height="12" fill="#f5d76e" opacity="0.75"/><rect x="4" y="28" width="12" height="8" fill="#f5d76e" opacity="0.75"/><rect x="48" y="28" width="12" height="8" fill="#f5d76e" opacity="0.75"/><rect x="12" y="12" width="8" height="8" fill="#f5d76e" opacity="0.55"/><rect x="44" y="12" width="8" height="8" fill="#f5d76e" opacity="0.55"/><rect x="12" y="44" width="8" height="8" fill="#f5d76e" opacity="0.55"/><rect x="44" y="44" width="8" height="8" fill="#f5d76e" opacity="0.55"/><rect x="48" y="16" width="4" height="40" fill="#654638"/><rect x="44" y="8" width="12" height="12" fill="#171321"/><rect x="48" y="12" width="4" height="4" fill="#f5d76e"/><rect x="40" y="20" width="4" height="4" fill="#f5d76e"/><rect x="12" y="56" width="40" height="4" fill="#171321"/><rect x="20" y="52" width="24" height="4" fill="#292238"/></svg>
